# xmcd
#
# Track frame offsets:
#	150
#	19245
#	43340
#	55480
#	70872
#	81587
#	95777
#	108082
#	127010
#	141670
#	155270
#	172110
#	190180
#	205907
#	221682
#	236187
#
# Disc length: 3373 seconds
#
# Revision: 1
# Processed by: cddbd v1.5.1PL0 Copyright (c) Steve Scherf et al.
# Submitted via: CDex 1.50Beta5
#
DISCID=fe0d2b10
DTITLE=かぐや姫 - かぐや姫 BEST16
DYEAR=1900
DGENRE=Folk
TTITLE0=妹
TTITLE1=おまえが大きくなったとき
TTITLE2=約束です
TTITLE3=遠い街
TTITLE4=僕は何をやってもだめな男です
TTITLE5=お前のサンダル
TTITLE6=南風知らん顔
TTITLE7=遥かなる思い
TTITLE8=22歳の別れ
TTITLE9=突然のさよなら
TTITLE10=好きだった人
TTITLE11=わかれ道
TTITLE12=あの人の手紙
TTITLE13=置手紙
TTITLE14=笑いしゃんせ泣きしゃんせ
TTITLE15=雨に消えたほほえみ
EXTD=
EXTT0=
EXTT1=
EXTT2=
EXTT3=
EXTT4=
EXTT5=
EXTT6=
EXTT7=
EXTT8=
EXTT9=
EXTT10=
EXTT11=
EXTT12=
EXTT13=
EXTT14=
EXTT15=
PLAYORDER=
